<svg width="50" height="51" viewBox="0 0 50 51" fill="none" xmlns="http://www.w3.org/2000/svg">
<path fill-rule="evenodd" clip-rule="evenodd" d="M5.14375 15.0187C5.28889 14.8732 5.46132 14.7578 5.65115 14.679C5.84097 14.6002 6.04448 14.5597 6.25 14.5597C6.45552 14.5597 6.65903 14.6002 6.84886 14.679C7.03868 14.7578 7.21111 14.8732 7.35625 15.0187L25 32.6656L42.6437 15.0187C42.789 14.8735 42.9615 14.7582 43.1513 14.6796C43.3411 14.601 43.5446 14.5605 43.75 14.5605C43.9554 14.5605 44.1589 14.601 44.3487 14.6796C44.5385 14.7582 44.711 14.8735 44.8563 15.0187C45.0015 15.164 45.1168 15.3365 45.1954 15.5263C45.274 15.7161 45.3145 15.9195 45.3145 16.125C45.3145 16.3304 45.274 16.5339 45.1954 16.7237C45.1168 16.9135 45.0015 17.086 44.8563 17.2312L26.1063 35.9812C25.9611 36.1267 25.7887 36.2422 25.5989 36.321C25.409 36.3997 25.2055 36.4403 25 36.4403C24.7945 36.4403 24.591 36.3997 24.4011 36.321C24.2113 36.2422 24.0389 36.1267 23.8937 35.9812L5.14375 17.2312C4.99824 17.0861 4.88279 16.9137 4.80402 16.7238C4.72525 16.534 4.68471 16.3305 4.68471 16.125C4.68471 15.9195 4.72525 15.716 4.80402 15.5261C4.88279 15.3363 4.99824 15.1639 5.14375 15.0187Z" fill="#F4F4F2"/>
</svg>
