<svg width="35" height="36" viewBox="0 0 35 36" fill="none" xmlns="http://www.w3.org/2000/svg">
<path d="M10.9944 33.3125C24.2025 33.3125 31.4278 22.3684 31.4278 12.8944C31.4278 12.5881 31.4278 12.2775 31.4147 11.9713C32.8214 10.9529 34.0354 9.69221 35 8.24813C33.686 8.82749 32.2935 9.20933 30.8678 9.38126C32.3696 8.48359 33.4944 7.07119 34.0331 5.40657C32.6222 6.24246 31.0778 6.82926 29.4678 7.14126C28.3854 5.98849 26.9531 5.22483 25.3927 4.96854C23.8323 4.71225 22.231 4.97765 20.8367 5.72362C19.4424 6.46959 18.333 7.65451 17.6804 9.09482C17.0277 10.5351 16.8682 12.1505 17.2266 13.6906C14.3713 13.5475 11.578 12.8057 9.02791 11.5135C6.47778 10.2213 4.22775 8.40748 2.42375 6.18969C1.50793 7.77144 1.22844 9.64244 1.64204 11.4228C2.05563 13.2031 3.13131 14.7593 4.65062 15.7753C3.51212 15.7366 2.39864 15.4309 1.4 14.8828V14.9813C1.40196 16.6382 1.97598 18.2437 3.02504 19.5264C4.07409 20.809 5.53382 21.69 7.1575 22.0206C6.5412 22.1904 5.90456 22.2751 5.26531 22.2722C4.81465 22.2736 4.36489 22.2318 3.92219 22.1475C4.3811 23.5739 5.27466 24.821 6.47773 25.7142C7.68079 26.6074 9.13311 27.1019 10.6313 27.1284C8.08622 29.1274 4.94244 30.2115 1.70625 30.2063C1.13601 30.2087 0.566176 30.1758 0 30.1078C3.28456 32.2018 7.09909 33.3137 10.9944 33.3125Z" fill="#F4F4F2"/>
</svg>
