<svg width="35" height="36" viewBox="0 0 35 36" fill="none" xmlns="http://www.w3.org/2000/svg">
<g clip-path="url(#clip0_5_24)">
<path d="M0 3.00688C0 1.62219 1.15062 0.5 2.57031 0.5H32.4297C33.8494 0.5 35 1.62219 35 3.00688V32.9931C35 34.3778 33.8494 35.5 32.4297 35.5H2.57031C1.15062 35.5 0 34.3778 0 32.9931V3.00688ZM10.8128 29.7994V13.9947H5.56063V29.7994H10.8128ZM8.18781 11.8356C10.0188 11.8356 11.1584 10.6237 11.1584 9.10563C11.1256 7.55469 10.0209 6.37563 8.22281 6.37563C6.42469 6.37563 5.25 7.55688 5.25 9.10563C5.25 10.6237 6.38969 11.8356 8.15281 11.8356H8.18781ZM18.9241 29.7994V20.9728C18.9241 20.5003 18.9591 20.0278 19.0991 19.6909C19.4775 18.7481 20.3416 17.7703 21.7941 17.7703C23.695 17.7703 24.4541 19.2184 24.4541 21.3447V29.7994H29.7062V20.7344C29.7062 15.8781 27.1163 13.6206 23.66 13.6206C20.8731 13.6206 19.6241 15.1519 18.9241 16.2303V16.285H18.8891C18.9007 16.2667 18.9123 16.2485 18.9241 16.2303V13.9947H13.6741C13.7397 15.4778 13.6741 29.7994 13.6741 29.7994H18.9241Z" fill="#F4F4F2"/>
</g>
<defs>
<clipPath id="clip0_5_24">
<rect width="35" height="35" fill="white" transform="translate(0 0.5)"/>
</clipPath>
</defs>
</svg>
