<svg width="35" height="36" viewBox="0 0 35 36" fill="none" xmlns="http://www.w3.org/2000/svg">
<g clip-path="url(#clip0_5_22)">
<path d="M17.5 0.5C12.7509 0.5 12.1538 0.521875 10.2878 0.605C8.42188 0.6925 7.15094 0.985625 6.0375 1.41875C4.86958 1.85804 3.8117 2.54712 2.93781 3.43781C2.04767 4.31215 1.35867 5.3699 0.91875 6.5375C0.485625 7.64875 0.190313 8.92188 0.105 10.7812C0.021875 12.6516 0 13.2466 0 18.0022C0 22.7534 0.021875 23.3484 0.105 25.2144C0.1925 27.0781 0.485625 28.3491 0.91875 29.4625C1.36719 30.6131 1.96438 31.5887 2.93781 32.5622C3.90906 33.5356 4.88469 34.135 6.03531 34.5812C7.15094 35.0144 8.41969 35.3097 10.2834 35.395C12.1516 35.4781 12.7466 35.5 17.5 35.5C22.2534 35.5 22.8463 35.4781 24.7144 35.395C26.5759 35.3075 27.8512 35.0144 28.9647 34.5812C30.1319 34.1417 31.189 33.4527 32.0622 32.5622C33.0356 31.5887 33.6328 30.6131 34.0812 29.4625C34.5122 28.3491 34.8075 27.0781 34.895 25.2144C34.9781 23.3484 35 22.7534 35 18C35 13.2466 34.9781 12.6516 34.895 10.7834C34.8075 8.92188 34.5122 7.64875 34.0812 6.5375C33.6414 5.36987 32.9524 4.3121 32.0622 3.43781C31.1886 2.54679 30.1306 1.85766 28.9625 1.41875C27.8469 0.985625 26.5737 0.690313 24.7122 0.605C22.8441 0.521875 22.2513 0.5 17.4956 0.5H17.5022H17.5ZM15.9316 3.65438H17.5022C22.1747 3.65438 22.7281 3.66969 24.5722 3.755C26.2784 3.83156 27.2059 4.11812 27.8228 4.35656C28.6388 4.67375 29.2228 5.05438 29.8353 5.66687C30.4478 6.27938 30.8263 6.86125 31.1434 7.67938C31.3841 8.29406 31.6684 9.22156 31.745 10.9278C31.8303 12.7719 31.8478 13.3253 31.8478 17.9956C31.8478 22.6659 31.8303 23.2216 31.745 25.0656C31.6684 26.7719 31.3819 27.6972 31.1434 28.3141C30.8629 29.0739 30.4151 29.761 29.8331 30.3244C29.2206 30.9369 28.6388 31.3153 27.8206 31.6325C27.2081 31.8731 26.2806 32.1575 24.5722 32.2362C22.7281 32.3194 22.1747 32.3391 17.5022 32.3391C12.8297 32.3391 12.2741 32.3194 10.43 32.2362C8.72375 32.1575 7.79844 31.8731 7.18156 31.6325C6.4214 31.3523 5.73371 30.9053 5.16906 30.3244C4.58664 29.7601 4.13814 29.0724 3.85656 28.3119C3.61812 27.6972 3.33156 26.7697 3.255 25.0634C3.17188 23.2194 3.15438 22.6659 3.15438 17.9912C3.15438 13.3187 3.17188 12.7675 3.255 10.9234C3.33375 9.21719 3.61813 8.28969 3.85875 7.67281C4.17594 6.85687 4.55656 6.27281 5.16906 5.66031C5.78156 5.04781 6.36344 4.66937 7.18156 4.35219C7.79844 4.11156 8.72375 3.82719 10.43 3.74844C12.0444 3.67406 12.67 3.65219 15.9316 3.65V3.65438ZM26.8428 6.55937C26.567 6.55937 26.294 6.61369 26.0392 6.71923C25.7844 6.82476 25.5529 6.97945 25.3579 7.17445C25.1629 7.36945 25.0082 7.60096 24.9027 7.85574C24.7971 8.11052 24.7428 8.3836 24.7428 8.65938C24.7428 8.93515 24.7971 9.20823 24.9027 9.46301C25.0082 9.71779 25.1629 9.9493 25.3579 10.1443C25.5529 10.3393 25.7844 10.494 26.0392 10.5995C26.294 10.7051 26.567 10.7594 26.8428 10.7594C27.3998 10.7594 27.9339 10.5381 28.3277 10.1443C28.7216 9.75047 28.9428 9.21633 28.9428 8.65938C28.9428 8.10242 28.7216 7.56828 28.3277 7.17445C27.9339 6.78062 27.3998 6.55937 26.8428 6.55937ZM17.5022 9.01375C16.3102 8.99515 15.1263 9.21387 14.0196 9.65718C12.9129 10.1005 11.9055 10.7595 11.056 11.5959C10.2064 12.4323 9.53173 13.4294 9.07121 14.529C8.6107 15.6286 8.37353 16.8089 8.37353 18.0011C8.37353 19.1933 8.6107 20.3735 9.07121 21.4732C9.53173 22.5728 10.2064 23.5699 11.056 24.4063C11.9055 25.2427 12.9129 25.9017 14.0196 26.345C15.1263 26.7883 16.3102 27.007 17.5022 26.9884C19.8615 26.9516 22.1117 25.9886 23.7671 24.3071C25.4226 22.6257 26.3504 20.3607 26.3504 18.0011C26.3504 15.6415 25.4226 13.3765 23.7671 11.6951C22.1117 10.0136 19.8615 9.05056 17.5022 9.01375ZM17.5022 12.1659C19.0495 12.1659 20.5334 12.7806 21.6275 13.8747C22.7216 14.9688 23.3363 16.4527 23.3363 18C23.3363 19.5473 22.7216 21.0312 21.6275 22.1253C20.5334 23.2194 19.0495 23.8341 17.5022 23.8341C15.9549 23.8341 14.471 23.2194 13.3769 22.1253C12.2828 21.0312 11.6681 19.5473 11.6681 18C11.6681 16.4527 12.2828 14.9688 13.3769 13.8747C14.471 12.7806 15.9549 12.1659 17.5022 12.1659Z" fill="#F4F4F2"/>
</g>
<defs>
<clipPath id="clip0_5_22">
<rect width="35" height="35" fill="white" transform="translate(0 0.5)"/>
</clipPath>
</defs>
</svg>
