<svg width="35" height="36" viewBox="0 0 35 36" fill="none" xmlns="http://www.w3.org/2000/svg">
<g clip-path="url(#clip0_5_28)">
<path d="M18.5937 14.7188C18.5937 14.4287 18.4785 14.1505 18.2734 13.9454C18.0683 13.7402 17.7901 13.625 17.5 13.625C17.2099 13.625 16.9317 13.7402 16.7266 13.9454C16.5215 14.1505 16.4062 14.4287 16.4062 14.7188V23.0159L13.8994 20.5069C13.7977 20.4052 13.677 20.3245 13.5441 20.2695C13.4112 20.2144 13.2688 20.1861 13.125 20.1861C12.9812 20.1861 12.8388 20.2144 12.7059 20.2695C12.573 20.3245 12.4523 20.4052 12.3506 20.5069C12.2489 20.6086 12.1683 20.7293 12.1132 20.8622C12.0582 20.995 12.0299 21.1374 12.0299 21.2812C12.0299 21.4251 12.0582 21.5675 12.1132 21.7003C12.1683 21.8332 12.2489 21.9539 12.3506 22.0556L16.7256 26.4306C16.8272 26.5325 16.9479 26.6133 17.0808 26.6684C17.2137 26.7236 17.3561 26.752 17.5 26.752C17.6439 26.752 17.7863 26.7236 17.9192 26.6684C18.0521 26.6133 18.1728 26.5325 18.2744 26.4306L22.6494 22.0556C22.7511 21.9539 22.8317 21.8332 22.8868 21.7003C22.9418 21.5675 22.9701 21.4251 22.9701 21.2812C22.9701 21.1374 22.9418 20.995 22.8868 20.8622C22.8317 20.7293 22.7511 20.6086 22.6494 20.5069C22.5477 20.4052 22.427 20.3245 22.2941 20.2695C22.1612 20.2144 22.0188 20.1861 21.875 20.1861C21.7312 20.1861 21.5888 20.2144 21.4559 20.2695C21.323 20.3245 21.2023 20.4052 21.1006 20.5069L18.5937 23.0159V14.7188Z" fill="#F4F4F2"/>
<path d="M30.625 31.125V10.3438L20.7812 0.5H8.75C7.58968 0.5 6.47688 0.960936 5.65641 1.78141C4.83594 2.60188 4.375 3.71468 4.375 4.875V31.125C4.375 32.2853 4.83594 33.3981 5.65641 34.2186C6.47688 35.0391 7.58968 35.5 8.75 35.5H26.25C27.4103 35.5 28.5231 35.0391 29.3436 34.2186C30.1641 33.3981 30.625 32.2853 30.625 31.125ZM20.7812 7.0625C20.7812 7.93274 21.127 8.76734 21.7423 9.38269C22.3577 9.99805 23.1923 10.3438 24.0625 10.3438H28.4375V31.125C28.4375 31.7052 28.207 32.2616 27.7968 32.6718C27.3866 33.082 26.8302 33.3125 26.25 33.3125H8.75C8.16984 33.3125 7.61344 33.082 7.2032 32.6718C6.79297 32.2616 6.5625 31.7052 6.5625 31.125V4.875C6.5625 4.29484 6.79297 3.73844 7.2032 3.3282C7.61344 2.91797 8.16984 2.6875 8.75 2.6875H20.7812V7.0625Z" fill="#F4F4F2"/>
</g>
<defs>
<clipPath id="clip0_5_28">
<rect width="35" height="35" fill="white" transform="translate(0 0.5)"/>
</clipPath>
</defs>
</svg>
