<svg width="81" height="80" viewBox="0 0 81 80" fill="none" xmlns="http://www.w3.org/2000/svg">
<g clip-path="url(#clip0_5_86)">
<path d="M68.1 15C68.763 15 69.3989 15.2634 69.8677 15.7322C70.3366 16.2011 70.6 16.837 70.6 17.5V55H10.6V17.5C10.6 16.837 10.8634 16.2011 11.3322 15.7322C11.8011 15.2634 12.4369 15 13.1 15H68.1ZM13.1 10C11.1109 10 9.2032 10.7902 7.79667 12.1967C6.39015 13.6032 5.59998 15.5109 5.59998 17.5V60H75.6V17.5C75.6 15.5109 74.8098 13.6032 73.4033 12.1967C71.9968 10.7902 70.0891 10 68.1 10H13.1ZM0.599976 62.5H80.6C80.6 64.4891 79.8098 66.3968 78.4033 67.8033C76.9968 69.2098 75.0891 70 73.1 70H8.09998C6.11085 70 4.2032 69.2098 2.79667 67.8033C1.39015 66.3968 0.599976 64.4891 0.599976 62.5H0.599976Z" fill="black"/>
</g>
<defs>
<clipPath id="clip0_5_86">
<rect width="80" height="80" fill="white" transform="translate(0.599976)"/>
</clipPath>
</defs>
</svg>
