<svg width="81" height="80" viewBox="0 0 81 80" fill="none" xmlns="http://www.w3.org/2000/svg">
<path d="M10.8 7.5C10.8 6.83696 11.0634 6.20107 11.5322 5.73223C12.0011 5.26339 12.6369 5 13.3 5H68.3C68.963 5 69.5989 5.26339 70.0678 5.73223C70.5366 6.20107 70.8 6.83696 70.8 7.5C70.8 8.16304 70.5366 8.79893 70.0678 9.26777C69.5989 9.73661 68.963 10 68.3 10H63.3V15C63.301 19.2452 62.1011 23.404 59.8387 26.9961C57.5764 30.5882 54.344 33.467 50.515 35.3C49.065 35.995 48.3 37.185 48.3 38.25V41.75C48.3 42.815 49.07 44.005 50.515 44.7C54.344 46.533 57.5764 49.4118 59.8387 53.0039C62.1011 56.596 63.301 60.7548 63.3 65V70H68.3C68.963 70 69.5989 70.2634 70.0678 70.7322C70.5366 71.2011 70.8 71.837 70.8 72.5C70.8 73.163 70.5366 73.7989 70.0678 74.2678C69.5989 74.7366 68.963 75 68.3 75H13.3C12.6369 75 12.0011 74.7366 11.5322 74.2678C11.0634 73.7989 10.8 73.163 10.8 72.5C10.8 71.837 11.0634 71.2011 11.5322 70.7322C12.0011 70.2634 12.6369 70 13.3 70H18.3V65C18.299 60.7548 19.4989 56.596 21.7612 53.0039C24.0236 49.4118 27.2559 46.533 31.085 44.7C32.535 44.005 33.3 42.815 33.3 41.75V38.25C33.3 37.185 32.53 35.995 31.085 35.3C27.2559 33.467 24.0236 30.5882 21.7612 26.9961C19.4989 23.404 18.299 19.2452 18.3 15V10H13.3C12.6369 10 12.0011 9.73661 11.5322 9.26777C11.0634 8.79893 10.8 8.16304 10.8 7.5ZM23.3 10V15C23.2991 18.3021 24.2324 21.5371 25.9922 24.3312C27.752 27.1253 30.2665 29.3644 33.245 30.79C35.91 32.07 38.3 34.745 38.3 38.245V41.755C38.3 45.255 35.91 47.93 33.245 49.21C30.2665 50.6356 27.752 52.8747 25.9922 55.6688C24.2324 58.4629 23.2991 61.6979 23.3 65V70H58.3V65C58.3009 61.6979 57.3675 58.4629 55.6077 55.6688C53.8479 52.8747 51.3335 50.6356 48.355 49.21C45.69 47.93 43.3 45.26 43.3 41.755V38.245C43.3 34.745 45.69 32.07 48.355 30.79C51.3335 29.3644 53.8479 27.1253 55.6077 24.3312C57.3675 21.5371 58.3009 18.3021 58.3 15V10H23.3Z" fill="black"/>
</svg>
