<svg width="81" height="80" viewBox="0 0 81 80" fill="none" xmlns="http://www.w3.org/2000/svg">
<g clip-path="url(#clip0_5_90)">
<path d="M30.3999 40C34.3782 40 38.1935 38.4196 41.0066 35.6066C43.8196 32.7936 45.3999 28.9782 45.3999 25C45.3999 21.0218 43.8196 17.2064 41.0066 14.3934C38.1935 11.5804 34.3782 10 30.3999 10C26.4217 10 22.6064 11.5804 19.7933 14.3934C16.9803 17.2064 15.3999 21.0218 15.3999 25C15.3999 28.9782 16.9803 32.7936 19.7933 35.6066C22.6064 38.4196 26.4217 40 30.3999 40ZM40.3999 25C40.3999 27.6522 39.3464 30.1957 37.471 32.0711C35.5957 33.9464 33.0521 35 30.3999 35C27.7478 35 25.2042 33.9464 23.3289 32.0711C21.4535 30.1957 20.3999 27.6522 20.3999 25C20.3999 22.3478 21.4535 19.8043 23.3289 17.9289C25.2042 16.0536 27.7478 15 30.3999 15C33.0521 15 35.5957 16.0536 37.471 17.9289C39.3464 19.8043 40.3999 22.3478 40.3999 25ZM60.3999 65C60.3999 70 55.3999 70 55.3999 70H5.39995C5.39995 70 0.399948 70 0.399948 65C0.399948 60 5.39995 45 30.3999 45C55.3999 45 60.3999 60 60.3999 65ZM55.3999 64.98C55.3949 63.75 54.6299 60.05 51.2399 56.66C47.9799 53.4 41.8449 50 30.3999 50C18.9499 50 12.8199 53.4 9.55995 56.66C6.16995 60.05 5.40995 63.75 5.39995 64.98H55.3999Z" fill="black"/>
<path fill-rule="evenodd" clip-rule="evenodd" d="M79.6699 25.73C79.9028 25.9622 80.0875 26.2381 80.2135 26.5418C80.3395 26.8456 80.4044 27.1712 80.4044 27.5C80.4044 27.8288 80.3395 28.1545 80.2135 28.4582C80.0875 28.7619 79.9028 29.0378 79.6699 29.27L64.6699 44.27C64.4377 44.5028 64.1618 44.6875 63.8581 44.8136C63.5544 44.9396 63.2288 45.0045 62.8999 45.0045C62.5711 45.0045 62.2455 44.9396 61.9418 44.8136C61.6381 44.6875 61.3622 44.5028 61.1299 44.27L53.6299 36.77C53.1605 36.3006 52.8968 35.6639 52.8968 35C52.8968 34.3361 53.1605 33.6994 53.6299 33.23C54.0994 32.7606 54.7361 32.4969 55.3999 32.4969C56.0638 32.4969 56.7005 32.7606 57.1699 33.23L62.8999 38.965L76.1299 25.73C76.3622 25.4972 76.6381 25.3125 76.9418 25.1864C77.2455 25.0604 77.5711 24.9955 77.8999 24.9955C78.2288 24.9955 78.5544 25.0604 78.8581 25.1864C79.1618 25.3125 79.4377 25.4972 79.6699 25.73Z" fill="black"/>
</g>
<defs>
<clipPath id="clip0_5_90">
<rect width="80" height="80" fill="white" transform="translate(0.399948)"/>
</clipPath>
</defs>
</svg>
