<svg width="81" height="80" viewBox="0 0 81 80" fill="none" xmlns="http://www.w3.org/2000/svg">
<path d="M40.2 40C44.1783 40 47.9936 38.4196 50.8066 35.6066C53.6197 32.7936 55.2 28.9782 55.2 25C55.2 21.0218 53.6197 17.2064 50.8066 14.3934C47.9936 11.5804 44.1783 10 40.2 10C36.2218 10 32.4065 11.5804 29.5934 14.3934C26.7804 17.2064 25.2 21.0218 25.2 25C25.2 28.9782 26.7804 32.7936 29.5934 35.6066C32.4065 38.4196 36.2218 40 40.2 40V40ZM50.2 25C50.2 27.6522 49.1464 30.1957 47.2711 32.0711C45.3957 33.9464 42.8522 35 40.2 35C37.5478 35 35.0043 33.9464 33.1289 32.0711C31.2536 30.1957 30.2 27.6522 30.2 25C30.2 22.3478 31.2536 19.8043 33.1289 17.9289C35.0043 16.0536 37.5478 15 40.2 15C42.8522 15 45.3957 16.0536 47.2711 17.9289C49.1464 19.8043 50.2 22.3478 50.2 25V25ZM70.2 65C70.2 70 65.2 70 65.2 70H15.2C15.2 70 10.2 70 10.2 65C10.2 60 15.2 45 40.2 45C65.2 45 70.2 60 70.2 65ZM65.2 64.98C65.195 63.75 64.43 60.05 61.04 56.66C57.78 53.4 51.645 50 40.2 50C28.75 50 22.62 53.4 19.36 56.66C15.97 60.05 15.21 63.75 15.2 64.98H65.2Z" fill="#F4F4F2"/>
</svg>
