<svg width="80" height="80" viewBox="0 0 80 80" fill="none" xmlns="http://www.w3.org/2000/svg">
<g clip-path="url(#clip0_5_88)">
<path d="M4.99998 14.14C9.42498 12.29 15.77 10.295 21.94 9.67501C28.59 9.00501 34.23 9.99001 37.5 13.435V62.165C32.825 59.515 26.9 59.15 21.435 59.7C15.535 60.3 9.58498 62.005 4.99998 63.755V14.14ZM42.5 13.435C45.77 9.99001 51.41 9.00501 58.06 9.67501C64.23 10.295 70.575 12.29 75 14.14V63.755C70.41 62.005 64.465 60.295 58.565 59.705C53.095 59.15 47.175 59.51 42.5 62.165V13.435ZM40 8.91501C35.075 4.68001 27.935 4.05001 21.435 4.70001C13.865 5.46501 6.22499 8.06001 1.46498 10.225C1.02823 10.4237 0.657861 10.7438 0.39809 11.1472C0.138318 11.5506 0.000117598 12.0202 -1.52588e-05 12.5L-1.52588e-05 67.5C0.000100551 67.9183 0.10517 68.3299 0.30557 68.697C0.50597 69.0642 0.795293 69.3752 1.14704 69.6016C1.49878 69.828 1.90171 69.9625 2.3189 69.9928C2.73609 70.0231 3.15422 69.9482 3.53498 69.775C7.94498 67.775 15.05 65.37 21.935 64.675C28.98 63.965 34.885 65.11 38.05 69.06C38.2842 69.352 38.5811 69.5876 38.9186 69.7496C39.2561 69.9115 39.6256 69.9956 40 69.9956C40.3743 69.9956 40.7439 69.9115 41.0814 69.7496C41.4189 69.5876 41.7157 69.352 41.95 69.06C45.115 65.11 51.02 63.965 58.06 64.675C64.95 65.37 72.06 67.775 76.465 69.775C76.8457 69.9482 77.2639 70.0231 77.6811 69.9928C78.0983 69.9625 78.5012 69.828 78.8529 69.6016C79.2047 69.3752 79.494 69.0642 79.6944 68.697C79.8948 68.3299 79.9999 67.9183 80 67.5V12.5C79.9999 12.0202 79.8616 11.5506 79.6019 11.1472C79.3421 10.7438 78.9717 10.4237 78.535 10.225C73.775 8.06001 66.135 5.46501 58.565 4.70001C52.065 4.04501 44.925 4.68001 40 8.91501Z" fill="black"/>
</g>
<defs>
<clipPath id="clip0_5_88">
<rect width="80" height="80" fill="white"/>
</clipPath>
</defs>
</svg>
